<?xml version="1.0" standalone="no"?>
<!DOCTYPE svg PUBLIC "-//W3C//DTD SVG 20010904//EN"
 "http://www.w3.org/TR/2001/REC-SVG-20010904/DTD/svg10.dtd">
<svg version="1.0" xmlns="http://www.w3.org/2000/svg"
 width="864.000000pt" height="864.000000pt" viewBox="0 0 864.000000 864.000000"
 preserveAspectRatio="xMidYMid meet">
<metadata>
Created by potrace 1.14, written by Peter Selinger 2001-2017
</metadata>
<g transform="translate(0.000000,864.000000) scale(0.100000,-0.100000)"
fill="#000000" stroke="none">
<path d="M4192 7915 c-2 -18 -9 -46 -17 -61 -8 -15 -12 -31 -9 -36 3 -4 -2 -8
-11 -8 -9 0 -13 -4 -10 -10 3 -5 1 -10 -5 -10 -6 0 -8 -4 -5 -10 3 -5 2 -10
-4 -10 -6 0 -13 -11 -17 -25 -3 -14 -15 -30 -25 -36 -11 -5 -17 -14 -14 -20 4
-5 2 -9 -3 -9 -5 0 -15 -13 -22 -30 -7 -16 -16 -30 -21 -30 -5 0 -9 -5 -9 -11
0 -7 -8 -18 -17 -26 -10 -8 -12 -11 -4 -7 9 5 12 3 7 -4 -4 -7 -13 -12 -21
-12 -7 0 -16 -11 -19 -25 -4 -14 -11 -25 -16 -25 -11 0 -35 -49 -31 -63 1 -5
-2 -6 -6 -4 -5 3 -14 -1 -21 -9 -7 -8 -10 -14 -7 -14 3 0 -7 -14 -22 -31 -16
-17 -27 -35 -25 -40 2 -8 -12 -13 -30 -10 -4 0 -5 -6 -2 -14 6 -14 -6 -20 -29
-16 -5 1 -5 -3 -2 -10 4 -6 -1 -19 -11 -29 -27 -27 -44 -48 -46 -57 -1 -5 -18
-22 -37 -39 -19 -18 -31 -36 -27 -43 4 -6 4 -10 -1 -9 -5 2 -21 -9 -35 -24
-14 -15 -29 -24 -34 -20 -4 4 -2 -2 6 -12 8 -11 10 -17 3 -13 -6 4 -14 3 -18
-3 -4 -6 -11 -7 -17 -4 -7 4 -8 2 -4 -4 4 -7 2 -12 -4 -12 -6 0 -9 -4 -6 -8 3
-5 -6 -16 -20 -26 -13 -11 -24 -25 -24 -33 0 -8 -4 -11 -10 -8 -5 3 -10 -1
-10 -9 0 -9 -7 -16 -16 -16 -10 0 -14 -6 -11 -14 3 -8 -5 -18 -19 -25 -14 -6
-22 -16 -19 -21 3 -6 -1 -13 -10 -16 -9 -4 -14 -13 -11 -20 3 -7 0 -11 -7 -8
-12 4 -52 -53 -49 -68 1 -5 -6 -8 -15 -8 -9 0 -14 -3 -10 -6 7 -7 -15 -33 -24
-28 -4 2 -6 -4 -5 -14 0 -9 -4 -16 -10 -15 -7 1 -10 -6 -7 -16 3 -12 -6 -25
-29 -40 -18 -13 -24 -20 -13 -17 19 6 19 5 3 -8 -10 -7 -18 -18 -18 -24 0 -5
-7 -13 -16 -16 -8 -3 -13 -10 -10 -15 5 -7 -3 -19 -44 -68 -6 -8 -5 -13 3 -16
7 -3 6 -6 -4 -6 -10 -1 -16 -9 -15 -18 0 -11 -5 -17 -14 -15 -12 3 -13 1 -2
-9 6 -7 12 -17 12 -23 0 -5 -3 -6 -7 -3 -3 4 -12 -1 -19 -11 -12 -16 -13 -16
-20 3 -4 11 -14 26 -21 33 -6 7 -10 19 -6 27 4 11 1 13 -10 9 -12 -4 -15 -1
-12 15 2 14 -1 21 -11 21 -8 0 -12 5 -9 10 3 6 1 10 -5 10 -6 0 -8 5 -5 10 3
6 -1 10 -9 10 -9 0 -16 5 -16 11 0 5 6 7 13 3 8 -5 8 -3 -2 9 -7 9 -18 14 -24
10 -6 -3 -7 -1 -3 5 3 6 -1 15 -9 20 -9 4 -17 18 -18 29 0 12 -4 20 -7 18 -3
-1 -14 9 -25 24 -19 26 -19 26 0 12 11 -8 8 -2 -8 13 -16 16 -24 32 -20 39 4
7 -1 6 -10 -2 -15 -12 -17 -12 -11 4 6 14 4 16 -6 10 -8 -5 -11 -4 -6 3 3 6
-1 17 -9 25 -8 9 -15 21 -15 27 0 6 -4 8 -10 5 -5 -3 -10 1 -10 10 0 9 -4 14
-9 10 -6 -3 -8 4 -6 15 2 13 -1 20 -11 20 -8 0 -14 10 -14 23 0 18 -2 19 -10
7 -8 -13 -10 -12 -10 3 0 9 -4 17 -10 17 -5 0 -10 7 -10 16 0 8 -4 12 -10 9
-5 -3 -10 1 -10 9 0 9 -5 16 -11 16 -5 0 -7 5 -4 10 3 6 1 10 -5 10 -12 0 -40
24 -40 35 0 12 -27 34 -34 28 -3 -4 -6 4 -6 16 0 12 -4 19 -10 16 -5 -3 -10 2
-10 11 0 10 -3 14 -6 11 -10 -10 -45 34 -37 46 3 6 1 7 -5 3 -7 -4 -12 -2 -12
5 0 7 -3 10 -6 6 -3 -3 -22 12 -42 34 -20 21 -42 39 -50 39 -7 0 -11 4 -7 9 3
5 1 12 -5 16 -5 3 -10 0 -10 -7 0 -8 -5 -6 -11 5 -6 9 -14 15 -18 12 -5 -2
-11 5 -14 17 -5 19 -8 20 -23 7 -10 -8 -16 -9 -13 -4 3 6 -6 21 -19 35 -14 14
-22 19 -18 13 4 -7 2 -13 -3 -13 -6 0 -11 5 -11 10 0 6 -7 10 -15 10 -8 0 -15
5 -15 10 0 6 -7 10 -15 10 -8 0 -15 4 -15 8 0 4 -13 13 -29 19 -33 12 -37 -2
-9 -31 12 -12 18 -13 21 -3 4 7 6 6 6 -4 1 -9 8 -20 17 -23 9 -3 12 -11 8 -18
-4 -7 -4 -10 1 -6 12 11 97 -80 88 -95 -4 -8 -1 -7 10 2 15 12 17 11 17 -8 0
-14 4 -20 12 -15 8 5 9 0 5 -15 -4 -17 -2 -20 7 -12 8 7 12 5 12 -9 0 -10 -4
-16 -8 -14 -4 3 -8 0 -8 -5 0 -6 6 -11 13 -11 7 0 8 -3 2 -8 -5 -4 -11 -13
-13 -21 -3 -12 -1 -12 14 0 16 13 16 12 7 -6 -6 -11 -8 -26 -5 -34 2 -7 -2
-17 -9 -22 -11 -7 -10 -9 4 -9 14 0 17 -5 12 -22 -4 -13 -11 -27 -15 -32 -5
-5 -3 -17 3 -28 10 -15 9 -21 -3 -28 -13 -8 -12 -10 3 -10 9 0 17 -5 17 -11 0
-6 -7 -8 -16 -5 -10 4 -13 2 -7 -7 10 -16 11 -97 0 -90 -8 5 0 -54 10 -70 3
-6 1 -7 -5 -3 -7 4 -10 -3 -8 -21 2 -16 -2 -31 -8 -35 -8 -6 -8 -8 0 -8 15 0
6 -82 -9 -92 -9 -6 -9 -8 1 -8 9 0 10 -5 3 -18 -6 -11 -6 -24 0 -34 6 -11 6
-19 -1 -23 -6 -4 -8 -10 -5 -15 3 -5 1 -12 -5 -15 -8 -5 -7 -11 1 -21 7 -9 8
-14 1 -14 -6 0 -9 -8 -8 -17 2 -10 -2 -21 -8 -25 -7 -5 -3 -8 9 -8 17 0 17 -2
5 -10 -8 -5 -11 -10 -6 -10 5 0 2 -8 -5 -17 -12 -15 -12 -16 1 -8 12 7 13 6 3
-7 -7 -8 -10 -18 -6 -21 3 -4 0 -7 -7 -7 -10 0 -11 -3 -3 -11 7 -7 8 -21 3
-40 -5 -16 -6 -29 -2 -29 4 0 0 -5 -8 -10 -13 -8 -13 -10 0 -10 10 0 11 -3 2
-12 -7 -7 -8 -17 -2 -28 7 -13 5 -22 -5 -30 -12 -10 -13 -16 -4 -26 9 -11 9
-14 0 -14 -7 0 -10 -11 -8 -27 2 -16 1 -37 -4 -49 -4 -11 -4 -27 1 -34 10 -16
2 -42 -11 -34 -5 3 -6 -2 -3 -10 3 -9 11 -13 18 -9 7 4 7 1 -1 -9 -7 -8 -10
-18 -6 -21 3 -4 2 -7 -3 -7 -5 0 -9 -18 -9 -39 -1 -22 3 -37 8 -34 5 3 4 -4
-2 -15 -9 -17 -8 -23 6 -32 13 -8 14 -10 2 -7 -12 4 -15 -3 -13 -33 1 -21 5
-44 9 -51 5 -8 4 -10 -3 -5 -15 9 -15 1 -1 -26 8 -15 8 -19 0 -14 -14 9 -14 0
0 -26 8 -15 8 -19 0 -14 -14 9 -14 -7 -1 -20 8 -8 6 -15 -5 -24 -12 -10 -15
-10 -15 1 0 11 -2 11 -10 -1 -8 -13 -10 -13 -10 0 0 10 -3 11 -11 3 -9 -9 -17
-8 -33 1 -15 9 -59 12 -146 10 -152 -2 -143 -1 -134 -16 5 -9 2 -9 -9 1 -11 9
-21 10 -29 4 -7 -5 -27 -9 -45 -8 -17 0 -29 -3 -27 -7 3 -4 -6 -8 -20 -8 -14
0 -26 -5 -26 -11 0 -8 -4 -8 -14 0 -11 10 -17 8 -25 -6 -6 -11 -11 -13 -11 -5
0 10 -5 10 -21 -2 -12 -8 -27 -12 -35 -9 -8 3 -16 -2 -20 -10 -3 -9 -14 -14
-25 -12 -12 3 -19 -2 -19 -12 0 -13 -2 -14 -17 -2 -11 10 -14 10 -9 2 4 -7 3
-13 -3 -13 -5 0 -17 -7 -25 -16 -9 -9 -16 -11 -16 -4 0 6 -5 8 -10 5 -6 -4 -8
-11 -5 -16 3 -5 -2 -6 -11 -2 -10 4 -15 2 -11 -4 3 -5 -9 -16 -28 -23 -19 -7
-32 -17 -30 -21 3 -4 -11 -14 -30 -23 -23 -11 -33 -22 -28 -29 4 -7 -1 -6 -11
2 -15 12 -17 12 -14 0 2 -8 -3 -13 -9 -12 -7 2 -13 -5 -13 -15 0 -14 -2 -15
-10 -2 -7 10 -10 11 -10 2 0 -7 -13 -20 -30 -31 -16 -10 -27 -20 -24 -23 3 -4
-4 -9 -15 -13 -12 -3 -19 -11 -16 -16 4 -5 -1 -9 -10 -9 -10 0 -13 -5 -9 -12
4 -7 4 -10 -1 -6 -11 11 -45 -10 -45 -28 0 -8 -11 -20 -25 -26 -14 -6 -25 -17
-25 -25 0 -7 -4 -13 -9 -13 -15 0 -61 -46 -61 -60 0 -7 -3 -11 -6 -7 -9 9 -45
-28 -49 -49 -1 -11 -8 -18 -14 -16 -12 2 -41 -21 -41 -32 0 -12 -34 -45 -42
-40 -4 3 -8 -2 -8 -10 0 -9 -4 -16 -10 -16 -5 0 -10 -7 -10 -16 0 -8 -4 -13
-9 -9 -5 3 -13 -4 -16 -16 -4 -11 -9 -18 -13 -15 -3 3 -16 -10 -29 -29 -13
-20 -28 -33 -33 -30 -5 3 -12 -4 -15 -15 -5 -17 -9 -19 -21 -9 -12 10 -15 10
-12 -2 2 -8 -7 -15 -20 -17 -15 -2 -22 -9 -18 -17 3 -9 -1 -12 -15 -10 -10 2
-19 1 -19 -3 0 -4 -9 -13 -21 -20 -17 -11 -20 -11 -14 0 5 7 -2 3 -14 -10 -12
-12 -26 -20 -32 -17 -5 4 -9 1 -9 -5 0 -6 -5 -8 -10 -5 -6 3 -13 0 -16 -9 -3
-8 -12 -12 -20 -9 -7 3 -16 -1 -19 -9 -3 -8 -15 -15 -27 -15 -12 -1 -26 -9
-30 -18 -5 -8 -20 -15 -34 -15 -14 0 -22 -4 -19 -10 3 -6 -1 -7 -9 -4 -10 4
-16 1 -16 -7 0 -7 -3 -9 -7 -6 -3 4 -15 -1 -25 -10 -18 -16 -19 -16 -13 3 6
18 6 18 -8 2 -11 -14 -16 -15 -26 -5 -7 7 -11 8 -9 2 2 -5 -1 -11 -6 -12 -5
-1 -13 -7 -17 -15 -7 -10 -9 -10 -9 0 0 10 -4 10 -22 0 -28 -15 -61 -21 -54
-10 3 5 -1 9 -9 9 -8 0 -12 -4 -9 -9 4 -6 -29 -12 -56 -10 -3 0 -7 -9 -7 -20
-1 -14 1 -18 8 -11 12 12 69 -5 69 -20 0 -5 7 -4 15 3 12 10 15 10 15 0 0 -7
7 -10 15 -6 8 3 14 0 12 -7 -1 -7 8 -12 21 -11 14 0 22 -5 22 -15 0 -14 2 -14
10 -1 6 10 10 11 10 3 0 -7 7 -13 15 -13 8 0 15 -4 15 -10 0 -5 6 -9 13 -7 6
1 11 -3 10 -10 -2 -7 3 -10 11 -7 7 3 20 -2 28 -10 12 -11 18 -12 28 -3 10 9
11 9 6 0 -4 -8 -1 -13 8 -13 9 0 16 -5 16 -11 0 -5 4 -8 9 -4 5 3 16 -2 25
-11 9 -8 20 -12 26 -9 6 3 13 -1 16 -9 3 -9 18 -16 33 -16 20 0 23 -2 11 -10
-13 -8 -12 -10 3 -10 10 0 20 -6 23 -14 3 -8 19 -19 35 -25 17 -6 29 -17 29
-28 0 -15 2 -16 10 -3 8 13 10 12 10 -4 0 -11 3 -17 6 -13 3 3 15 -3 27 -14
11 -10 27 -19 34 -19 8 0 11 -4 8 -10 -3 -5 1 -10 9 -10 9 0 16 -5 16 -11 0
-5 4 -7 10 -4 5 3 10 1 10 -6 0 -7 3 -9 7 -6 3 4 12 -2 20 -13 8 -11 23 -20
34 -20 10 0 18 -6 16 -12 -1 -7 4 -12 10 -11 7 2 13 -4 13 -12 0 -9 6 -12 17
-8 10 4 14 2 10 -4 -4 -7 6 -17 23 -25 16 -7 30 -16 30 -20 0 -5 7 -8 16 -8 8
0 12 -4 9 -10 -3 -5 3 -10 15 -10 12 0 18 -4 15 -10 -3 -5 3 -10 15 -10 12 0
18 -5 15 -10 -3 -5 1 -10 9 -10 9 0 16 -4 16 -10 0 -5 7 -10 16 -10 9 0 12 -5
8 -12 -5 -8 -2 -9 10 -5 9 4 15 3 12 -2 -3 -5 5 -12 19 -15 14 -4 25 -11 25
-17 0 -6 4 -7 10 -4 6 4 7 -1 3 -11 -5 -14 -3 -16 11 -11 14 6 17 3 12 -8 -3
-9 -2 -13 3 -10 5 3 12 1 16 -5 4 -6 11 -8 16 -5 5 4 9 -1 9 -10 0 -8 12 -20
26 -25 14 -6 23 -14 19 -19 -3 -5 0 -13 6 -17 8 -4 9 -3 5 4 -4 7 -3 12 3 12
5 0 13 -10 16 -21 6 -17 9 -19 16 -8 6 10 9 7 9 -11 0 -20 2 -22 10 -10 9 13
10 13 11 0 1 -8 1 -19 0 -23 -1 -5 3 -6 8 -3 5 4 12 2 16 -3 3 -6 12 -8 20 -4
11 4 13 1 8 -13 -4 -12 -3 -15 5 -10 7 4 12 2 12 -3 0 -6 6 -11 14 -11 8 0 21
-8 28 -17 7 -10 19 -19 27 -21 8 -2 23 -12 32 -23 10 -11 20 -20 23 -20 21 3
26 -1 20 -11 -4 -7 -4 -10 1 -6 4 4 14 3 22 -3 7 -6 13 -8 13 -5 0 4 7 0 16
-8 8 -9 20 -14 25 -10 5 3 8 2 7 -3 -2 -4 1 -9 6 -10 5 -1 12 -5 15 -10 10
-13 49 -33 66 -33 8 0 15 -4 15 -10 0 -5 12 -10 26 -10 17 0 23 -4 18 -12 -5
-8 0 -7 11 2 10 8 16 10 12 4 -9 -16 12 -30 43 -29 14 0 31 -6 38 -15 12 -13
12 -13 6 0 -5 10 1 8 16 -5 15 -13 21 -15 16 -5 -5 9 -2 9 7 -2 10 -13 17 -14
25 -6 9 9 10 6 7 -12 -2 -13 1 -30 7 -37 8 -10 7 -12 -5 -7 -12 4 -14 1 -10
-17 4 -14 2 -20 -4 -16 -6 4 -9 -4 -7 -18 1 -14 -2 -25 -8 -25 -6 0 -8 -7 -4
-15 3 -8 1 -15 -4 -15 -6 0 -10 -8 -10 -17 0 -15 -2 -16 -10 -3 -5 8 -10 10
-10 5 0 -6 6 -17 13 -24 10 -11 10 -13 0 -7 -8 5 -13 1 -13 -9 0 -10 -5 -13
-12 -9 -7 5 -8 3 -4 -5 5 -7 0 -19 -10 -27 -11 -9 -12 -12 -4 -8 13 7 13 6 0
-11 -8 -10 -15 -21 -15 -24 0 -3 -3 -5 -7 -4 -4 2 -5 -4 -2 -12 4 -8 1 -15 -6
-15 -6 0 -8 -4 -5 -10 3 -5 1 -10 -5 -10 -6 0 -8 -4 -5 -10 3 -6 1 -10 -5 -10
-7 0 -10 -7 -6 -15 3 -9 0 -15 -9 -15 -7 0 -17 -5 -21 -12 -5 -7 -3 -8 6 -3 8
5 4 -6 -9 -23 -12 -18 -20 -36 -17 -41 3 -5 -2 -8 -11 -7 -9 0 -18 -6 -20 -14
-4 -13 -3 -13 6 0 7 9 11 10 11 3 0 -6 -9 -18 -20 -26 -11 -8 -17 -17 -13 -20
3 -4 2 -7 -4 -7 -6 0 -27 -27 -47 -60 -21 -33 -42 -58 -47 -55 -5 3 -6 -1 -3
-9 4 -9 -1 -18 -10 -22 -9 -3 -14 -10 -11 -14 2 -4 -4 -15 -15 -25 -11 -10
-20 -28 -20 -39 0 -17 -2 -18 -10 -6 -8 13 -10 12 -10 -2 0 -10 -5 -18 -11
-18 -5 0 -7 -4 -4 -10 3 -5 2 -10 -4 -10 -6 0 -14 -12 -17 -26 -4 -16 -11 -23
-21 -20 -8 3 -11 1 -8 -4 3 -5 -3 -18 -15 -30 -11 -11 -18 -20 -15 -20 2 0 -7
-12 -20 -26 -14 -15 -25 -31 -25 -36 0 -5 -6 -6 -13 -2 -6 4 -9 4 -5 -1 11
-11 -11 -47 -24 -39 -6 4 -8 3 -4 -4 3 -6 -1 -17 -10 -26 -8 -9 -12 -22 -8
-28 4 -7 4 -10 0 -6 -10 8 -58 -41 -51 -53 3 -4 -4 -10 -14 -14 -13 -4 -18
-11 -14 -22 4 -9 2 -14 -3 -11 -13 7 -51 -37 -48 -56 1 -9 -2 -14 -7 -10 -9 5
-41 -20 -35 -27 1 -2 -6 -12 -16 -22 -10 -9 -18 -14 -18 -11 0 3 -9 -4 -21
-17 -11 -13 -17 -18 -13 -10 4 9 3 12 -3 8 -10 -7 -42 -67 -41 -77 1 -3 -5
-16 -12 -30 -13 -24 -12 -24 5 -10 17 14 17 14 7 -7 -15 -27 -15 -36 -2 -28
13 8 0 -28 -14 -37 -7 -5 -3 -8 8 -8 16 0 16 -2 6 -16 -11 -13 -10 -16 8 -21
12 -3 22 -10 22 -16 0 -6 3 -7 6 -4 4 3 15 2 25 -4 15 -8 17 -6 12 7 -5 15 -4
15 20 -1 16 -10 27 -13 27 -6 0 6 5 11 11 11 5 0 7 -5 3 -12 -4 -7 -3 -8 5 -4
6 4 19 2 28 -6 12 -9 15 -9 9 0 -5 8 -1 11 16 8 13 -2 22 -9 20 -15 -2 -9 3
-9 18 -1 11 6 20 7 20 3 0 -4 20 -8 45 -8 25 0 45 -3 45 -8 0 -5 6 -7 14 -4 8
3 20 -1 27 -9 8 -10 15 -11 24 -4 9 8 15 8 20 0 3 -6 11 -8 16 -5 5 4 9 2 9
-4 0 -6 6 -8 14 -5 8 3 17 1 21 -5 3 -6 17 -11 31 -11 13 0 24 -4 24 -8 0 -8
23 -12 68 -12 13 0 21 -4 18 -8 -2 -4 4 -8 14 -8 10 0 17 3 15 6 -2 4 2 7 10
7 8 0 12 -4 9 -9 -3 -4 4 -8 16 -8 12 0 19 -3 17 -7 -3 -5 15 -9 39 -9 24 -1
52 -5 62 -9 26 -12 65 -12 80 -2 8 6 12 5 12 -4 0 -11 2 -11 10 1 9 13 10 13
10 0 0 -13 1 -13 10 0 8 12 10 12 10 1 0 -10 3 -11 14 -2 11 9 15 9 20 -1 5
-11 7 -11 12 0 5 10 9 10 20 1 11 -9 14 -8 14 2 0 12 2 12 9 1 11 -17 21 -17
32 0 7 10 9 10 9 -2 0 -11 3 -11 12 -2 14 14 32 16 24 4 -3 -5 1 -9 9 -9 8 0
12 4 9 9 -4 6 34 11 62 7 4 0 11 5 15 13 7 10 9 10 9 1 0 -19 14 -16 44 12 14
13 26 20 26 15 0 -5 12 2 27 16 15 14 33 22 40 19 8 -2 11 0 8 5 -9 14 22 43
36 34 7 -4 9 -3 5 4 -3 6 -1 14 5 17 5 4 8 14 5 22 -3 8 -1 11 4 8 11 -7 31
35 23 48 -4 7 13 11 31 8 5 -1 4 5 -3 13 -11 13 -10 17 3 22 9 3 13 10 10 15
-3 5 9 9 25 9 17 0 31 -4 31 -9 0 -5 9 -7 20 -4 15 4 20 0 20 -13 0 -11 4 -15
8 -9 7 10 23 16 54 18 10 1 18 4 18 7 0 3 9 7 20 8 11 1 28 2 38 3 9 1 23 6
30 12 8 6 12 6 12 -2 0 -7 5 -9 10 -6 6 4 8 10 5 15 -3 4 3 7 12 6 9 -2 19 -8
21 -14 2 -7 8 -12 14 -12 5 0 16 -6 24 -14 11 -11 11 -16 1 -19 -7 -3 -4 -6 6
-6 10 -1 15 -5 12 -11 -3 -5 -2 -10 4 -10 5 0 11 -10 13 -22 2 -13 9 -22 16
-21 6 2 11 0 11 -5 -3 -19 2 -33 11 -27 6 3 7 -1 4 -10 -4 -10 1 -22 15 -31
11 -8 21 -21 21 -27 0 -7 9 -18 21 -25 17 -11 19 -16 7 -29 -7 -10 -8 -14 -1
-10 7 4 16 -4 24 -22 8 -17 23 -35 34 -41 20 -10 20 -10 0 -5 -19 5 -19 4 1
-12 12 -10 27 -29 34 -43 7 -14 28 -38 47 -54 24 -21 30 -32 23 -41 -8 -9 -4
-14 12 -20 13 -4 27 -6 32 -6 5 1 4 -5 -4 -13 -10 -13 -10 -16 4 -16 10 0 14
-4 11 -10 -3 -5 1 -10 9 -10 9 0 15 -6 14 -12 -2 -7 3 -12 11 -10 9 2 11 -3 7
-14 -4 -11 -2 -15 8 -11 11 4 13 1 9 -10 -5 -12 -2 -15 10 -10 12 4 15 1 12
-14 -2 -11 0 -17 4 -15 4 3 14 -6 21 -19 7 -14 22 -27 32 -31 11 -3 17 -12 14
-20 -3 -7 -2 -13 2 -13 22 4 42 -2 37 -11 -6 -9 8 -14 28 -11 6 1 11 -14 9
-30 -1 -4 6 -6 16 -5 10 0 16 -5 14 -13 -2 -9 3 -11 14 -7 12 5 15 2 10 -9 -3
-9 -2 -14 3 -10 5 3 16 -2 24 -10 9 -8 23 -15 31 -15 9 0 16 -4 16 -10 0 -5 9
-10 20 -10 11 0 20 -4 20 -9 0 -6 9 -8 20 -6 11 2 19 -1 17 -8 -1 -6 7 -13 18
-15 11 -2 28 -11 38 -20 9 -8 17 -12 17 -8 0 3 14 -1 30 -9 17 -9 36 -13 43
-9 7 4 9 4 5 -1 -5 -5 1 -13 11 -19 10 -6 29 -17 41 -24 19 -12 21 -12 14 0
-4 7 2 5 13 -5 11 -10 26 -17 34 -15 7 2 14 -3 15 -9 1 -7 2 -16 3 -20 1 -5
11 3 21 16 l20 23 -2 -23 c-2 -19 1 -23 16 -21 12 2 16 -1 10 -10 -4 -7 2 -4
14 6 25 22 30 35 6 16 -8 -8 -14 -9 -13 -4 4 23 -2 26 -17 8 -14 -18 -15 -18
-4 4 7 14 16 20 23 15 15 -9 37 -14 61 -14 10 0 25 -6 32 -14 8 -7 23 -11 34
-8 11 3 28 2 37 -2 28 -12 53 -13 46 -2 -4 7 1 8 13 4 18 -7 18 -7 1 7 -11 8
-27 13 -37 11 -10 -2 -21 3 -24 11 -3 7 -11 11 -19 8 -8 -3 -20 2 -27 11 -7 8
-19 15 -27 15 -7 0 -16 7 -20 16 -5 13 -7 13 -14 2 -7 -10 -9 -9 -9 3 0 9 -7
19 -15 22 -8 3 -12 15 -10 25 3 16 -1 19 -18 16 -12 -2 -16 -1 -9 2 9 4 7 11
-9 25 -19 16 -20 21 -8 36 9 11 10 14 2 9 -8 -4 -13 -1 -13 9 0 10 -5 13 -12
9 -7 -5 -8 -3 -3 5 4 7 8 27 10 45 1 18 5 38 9 44 4 7 2 12 -6 12 -8 0 -6 5 5
11 12 7 16 17 12 30 -4 11 -2 19 4 19 6 0 11 5 11 12 0 6 8 21 18 32 13 16 13
18 2 11 -9 -6 -7 -2 3 8 11 9 16 17 12 17 -3 0 1 7 9 16 9 8 16 23 16 32 0 15
2 15 10 2 8 -13 10 -13 10 2 0 9 9 23 20 31 11 8 17 17 14 20 -4 3 5 11 19 18
17 8 23 17 20 27 -4 9 -2 13 3 9 6 -3 16 3 24 13 8 10 17 17 21 14 4 -2 15 6
24 18 8 13 21 23 28 23 6 1 11 6 9 13 -2 11 11 16 31 13 4 0 7 6 7 14 0 8 3
14 8 14 19 -3 33 2 27 11 -5 9 16 15 38 11 5 -1 6 3 2 9 -3 5 1 10 10 10 9 0
13 5 10 10 -3 6 3 10 14 10 12 0 21 5 21 11 0 5 4 8 9 5 5 -3 12 1 15 10 4 11
14 14 27 11 17 -5 18 -3 7 11 -7 9 -8 14 -3 9 4 -4 19 0 32 8 13 9 23 13 23
10 0 -3 11 5 23 19 16 17 27 22 35 16 7 -6 10 -7 7 -3 -7 9 33 35 45 28 6 -3
7 1 4 10 -5 11 -2 14 12 8 11 -4 15 -3 11 4 -4 6 0 14 9 17 10 4 13 2 9 -7 -4
-6 1 -3 10 8 9 11 19 20 23 21 19 2 41 17 37 24 -3 4 3 7 13 6 9 0 16 5 14 12
-1 8 2 11 8 7 5 -3 13 1 16 9 3 9 10 14 15 11 4 -3 21 8 37 25 16 16 32 27 35
23 4 -3 7 -1 7 6 0 8 6 11 16 7 8 -3 12 -2 9 4 -3 6 1 13 9 16 9 3 16 12 16
20 0 8 5 14 10 14 15 0 55 39 55 53 0 7 5 12 11 12 16 0 44 31 36 40 -4 5 1 5
11 2 11 -4 16 -3 12 3 -3 6 -2 10 4 10 6 0 7 7 4 17 -4 10 -2 14 5 9 6 -3 13
3 17 14 3 11 10 20 15 20 5 0 6 7 3 17 -4 10 -2 14 4 10 6 -4 14 0 17 9 4 10
2 13 -7 9 -6 -4 -1 3 13 14 17 14 20 21 10 21 -12 1 -12 3 2 14 10 7 15 15 12
19 -3 3 3 14 12 26 17 19 19 20 38 3 11 -9 16 -11 12 -4 -10 17 9 15 24 -3 9
-10 16 -12 25 -5 8 6 23 4 48 -9 25 -13 39 -15 46 -8 8 8 11 7 11 -2 0 -7 5
-9 10 -6 6 3 10 2 10 -4 0 -5 11 -8 25 -6 14 1 25 -2 25 -6 0 -5 11 -9 24 -9
13 0 26 -5 28 -12 2 -6 13 -13 24 -14 43 -6 79 -17 85 -26 3 -5 16 -10 27 -11
12 -1 22 -5 22 -9 0 -4 9 -8 21 -8 13 0 18 -4 13 -12 -5 -7 -3 -8 6 -3 8 5 18
1 27 -11 8 -10 16 -18 18 -16 13 6 24 0 30 -17 4 -13 13 -18 25 -16 13 2 20
-2 20 -11 0 -8 5 -12 10 -9 6 3 10 2 10 -4 0 -5 9 -13 20 -16 11 -3 20 -14 20
-22 0 -9 3 -14 6 -10 8 7 94 -79 94 -94 0 -6 7 -8 17 -5 10 4 15 4 11 1 -8 -9
23 -45 34 -39 4 3 5 -2 2 -10 -4 -9 0 -18 9 -22 9 -3 13 -12 11 -19 -3 -7 0
-16 5 -20 6 -3 9 -11 6 -16 -4 -5 -2 -9 4 -9 6 0 8 -7 5 -15 -4 -8 -1 -15 6
-15 10 0 10 -3 0 -15 -10 -12 -10 -15 0 -15 9 0 10 -3 1 -13 -6 -8 -7 -17 -2
-23 11 -11 19 -124 8 -117 -4 2 -6 -7 -3 -21 3 -18 1 -24 -6 -20 -7 5 -9 0 -6
-14 3 -12 2 -20 -3 -19 -5 1 -18 -12 -30 -30 -20 -32 -17 -35 29 -19 12 4 20
11 17 16 -3 5 5 12 17 15 25 8 105 85 101 97 -2 5 4 8 13 8 10 0 14 6 10 15
-5 14 5 20 27 16 5 -1 5 4 1 10 -4 7 1 18 10 25 10 7 18 16 19 21 1 4 6 7 10
5 5 -1 6 2 2 8 -8 13 19 52 31 42 4 -4 3 0 -4 10 -10 12 -10 18 -1 24 8 4 9 3
5 -4 -4 -7 -5 -12 -2 -12 3 0 10 10 17 21 9 17 8 20 -3 14 -7 -3 -5 0 4 8 10
8 15 17 11 20 -3 4 1 15 10 25 10 10 14 22 10 25 -3 4 -1 7 6 7 7 0 10 4 6 9
-3 6 3 14 12 20 14 8 15 11 3 11 -12 0 -10 4 4 15 14 11 16 15 5 15 -12 0 -12
2 0 9 8 5 10 14 6 21 -6 9 -4 11 5 5 10 -6 12 -4 7 8 -4 10 0 20 11 26 12 7
13 10 3 11 -11 0 -11 3 -1 15 7 8 9 15 4 16 -5 0 0 4 11 9 l20 9 -20 1 c-18 0
-18 2 -3 10 10 6 15 20 13 35 -1 17 3 25 14 26 11 0 12 2 3 6 -10 4 -10 8 -1
19 7 8 9 17 6 21 -3 3 0 20 7 38 11 25 11 36 3 45 -9 10 -9 11 -1 7 7 -4 15 0
18 9 3 8 2 12 -4 9 -6 -3 -10 -1 -10 4 0 6 5 11 11 11 8 0 7 6 -2 17 -8 9 -9
14 -3 10 7 -4 15 0 18 9 9 22 8 26 -6 18 -7 -5 -8 -3 -2 7 5 8 9 22 10 32 3
35 4 38 17 32 6 -4 3 1 -7 9 -11 9 -15 16 -8 16 6 0 9 9 7 20 -2 11 0 22 6 25
5 4 9 11 9 16 0 6 -5 7 -12 3 -8 -5 -8 -3 -2 7 7 11 15 114 14 179 -2 64 -5
80 -14 80 -6 0 -4 5 4 10 8 5 10 10 4 10 -7 0 -11 16 -10 40 1 29 -3 40 -14
40 -11 0 -12 2 -3 8 8 5 9 13 3 22 -6 8 -10 28 -10 43 0 20 -4 26 -12 21 -8
-5 -7 0 2 11 9 11 10 16 3 11 -7 -4 -13 -2 -13 4 0 11 13 18 45 23 11 1 26 7
34 11 11 7 12 6 6 -5 -7 -12 -6 -12 7 -1 9 7 20 12 24 11 21 -3 35 2 29 11 -3
5 -1 10 4 10 6 0 11 -5 11 -11 0 -8 6 -7 17 2 11 9 14 10 9 2 -5 -9 -2 -11 8
-7 9 3 14 9 11 13 -2 4 10 5 27 3 22 -3 29 -1 24 7 -9 14 16 10 26 -4 5 -6 8
-5 8 4 0 8 6 11 16 7 8 -3 13 -2 10 3 -3 5 1 12 10 15 10 4 13 2 8 -6 -5 -7
-3 -8 7 -2 8 4 23 10 34 11 10 2 22 7 25 12 3 4 15 7 27 6 12 -1 25 5 28 12 2
8 9 12 14 8 5 -3 13 0 16 6 4 5 13 8 21 5 8 -3 14 -1 14 5 0 6 7 8 16 5 10 -4
13 -2 8 6 -5 8 -2 9 10 5 10 -4 15 -3 11 3 -3 6 2 10 11 10 10 0 26 8 37 17
11 10 18 13 14 7 -3 -6 0 -11 8 -11 8 0 13 5 12 10 -1 5 5 11 14 12 37 6 59
17 54 26 -4 5 3 9 15 9 13 0 19 4 14 12 -4 6 -3 8 3 5 11 -7 63 14 63 26 0 4
7 7 15 7 8 0 15 5 15 11 0 6 7 9 15 5 9 -3 15 0 15 9 0 14 12 19 33 16 4 0 7
4 7 9 0 5 6 9 13 7 6 -1 11 3 10 10 -2 7 6 10 17 8 14 -3 20 2 20 13 0 15 2
15 10 2 9 -13 14 -7 11 13 0 4 8 7 19 7 11 0 20 5 20 10 0 6 7 10 16 10 8 0
12 4 9 10 -3 6 3 10 15 10 12 0 19 4 15 9 -3 5 -1 12 5 16 5 3 10 1 10 -5 0
-6 5 -8 10 -5 6 4 8 11 5 16 -4 5 0 9 8 9 8 0 22 9 32 20 10 11 24 20 30 20 7
0 16 7 19 16 3 8 10 12 16 9 5 -3 10 1 10 9 0 9 7 16 15 16 8 0 19 9 25 20 6
11 15 20 21 20 14 0 39 26 39 40 0 6 5 8 10 5 6 -3 10 -1 10 5 0 6 5 8 10 5 6
-3 10 -1 10 5 0 6 4 8 10 5 6 -4 7 1 3 11 -4 11 -2 15 4 11 6 -4 17 1 24 10
12 14 12 16 0 8 -9 -5 -12 -4 -7 3 4 6 14 8 23 5 11 -4 14 -3 9 5 -4 7 -2 12
6 12 7 0 22 13 33 29 16 24 22 28 34 18 12 -9 13 -9 7 1 -5 8 7 27 33 52 22
22 38 40 35 40 -3 0 13 18 35 39 22 21 37 42 34 45 -4 3 2 6 11 6 13 0 16 5
12 16 -5 12 -2 15 9 10 9 -3 14 -2 11 3 -3 5 1 14 10 21 8 7 13 19 10 26 -3 9
0 11 11 7 13 -5 15 -2 10 11 -4 10 -3 15 3 11 11 -7 32 29 22 40 -4 5 2 5 12
1 16 -6 17 -4 6 9 -7 9 -9 15 -3 13 15 -4 55 43 49 59 -3 7 1 13 9 13 8 0 14
6 12 13 -1 6 3 11 10 10 8 -2 10 4 6 14 -4 9 1 21 12 29 10 8 15 14 11 14 -5
0 -2 8 5 17 12 15 12 16 -1 8 -8 -4 -5 2 8 14 24 24 29 36 10 26 -7 -4 -4 1 6
9 11 9 16 16 12 16 -5 0 -2 8 5 17 12 15 12 16 -1 8 -8 -4 -4 3 8 17 22 24 22
27 5 31 -16 4 -16 5 0 6 12 1 17 10 17 32 0 16 4 28 8 25 4 -2 8 4 8 15 0 10
-4 19 -9 19 -5 0 -1 7 7 16 13 12 14 20 5 36 -6 12 -7 18 -1 14 5 -3 12 3 15
14 3 11 0 20 -5 20 -6 0 -4 8 3 17 12 15 12 16 -1 8 -12 -6 -13 -5 -2 6 6 7
12 17 12 22 0 4 -6 5 -12 1 -10 -6 -10 -4 -2 7 6 8 12 54 13 102 1 70 -1 87
-11 81 -10 -6 -9 -3 1 9 17 21 13 21 -33 2 -20 -8 -36 -20 -36 -26 0 -6 -7 -9
-15 -5 -8 3 -15 1 -15 -5 0 -5 -12 -14 -26 -19 -14 -6 -22 -14 -19 -20 3 -6
-1 -7 -9 -4 -10 4 -16 1 -16 -7 0 -11 -3 -11 -10 1 -6 10 -10 11 -10 3 0 -7
-7 -13 -15 -13 -8 0 -15 -5 -15 -12 0 -6 -7 -3 -15 8 -15 18 -15 18 -8 0 4
-13 3 -17 -4 -13 -6 4 -18 0 -27 -8 -8 -8 -17 -11 -20 -6 -5 7 -41 8 -41 1 0
-9 -35 -5 -36 3 0 7 -4 3 -9 -8 -8 -19 -9 -19 -9 -1 -1 14 -4 16 -14 7 -8 -6
-17 -8 -21 -4 -10 11 -46 11 -46 0 0 -5 -7 -4 -15 3 -12 10 -18 10 -29 1 -10
-9 -16 -9 -21 -1 -5 8 -11 7 -23 -2 -12 -10 -14 -10 -8 0 7 12 -21 17 -66 13
-10 -1 -18 2 -18 8 0 6 -13 9 -29 7 -20 -2 -32 2 -36 12 -3 9 -13 12 -26 9
-15 -4 -19 -2 -15 9 4 12 2 12 -14 4 -15 -8 -20 -8 -20 1 0 6 -6 9 -14 6 -7
-3 -21 4 -30 14 -9 11 -21 17 -26 14 -6 -3 -10 -1 -10 6 0 7 -3 9 -7 6 -3 -4
-11 0 -17 8 -6 7 -18 15 -26 17 -21 4 -39 22 -33 31 3 5 -5 3 -18 -4 -22 -11
-23 -11 -10 5 12 14 12 16 -3 10 -10 -4 -18 0 -22 10 -3 9 -10 13 -15 10 -5
-3 -9 2 -9 11 0 9 -4 14 -9 10 -5 -3 -17 2 -25 11 -9 8 -16 12 -16 7 0 -4 -5
0 -11 10 -6 9 -14 15 -19 12 -5 -3 -11 3 -15 14 -4 13 -13 18 -25 16 -13 -3
-17 1 -13 11 5 13 -7 18 -36 15 -7 -2 -10 2 -6 8 3 6 -1 11 -10 11 -10 0 -13
5 -9 12 5 7 2 9 -8 6 -8 -4 -22 2 -31 13 -10 11 -23 16 -33 12 -10 -3 -15 -2
-12 3 7 10 -11 27 -32 32 -8 2 -17 8 -18 13 -2 5 -8 6 -14 3 -5 -3 -16 2 -24
12 -9 11 -12 12 -8 4 5 -11 2 -10 -13 3 -12 11 -27 15 -38 11 -13 -5 -16 -4
-11 4 4 7 1 12 -9 12 -10 0 -14 5 -9 13 5 9 4 9 -6 0 -10 -9 -16 -9 -27 2 -7
8 -21 11 -30 8 -10 -4 -14 -2 -10 4 4 7 0 10 -10 8 -10 -1 -24 2 -30 8 -7 5
-13 6 -13 2 0 -4 -6 -3 -12 3 -7 5 -26 11 -43 13 -16 2 -36 8 -43 13 -8 5 -31
9 -52 8 -21 -2 -41 2 -45 8 -3 5 -12 10 -18 10 -7 0 -6 -4 3 -10 12 -7 10 -9
-7 -7 -12 0 -20 4 -17 8 2 4 -23 6 -56 6 -34 -1 -60 2 -60 8 0 6 -4 4 -8 -3
-7 -9 -15 -10 -35 -3 -15 6 -27 7 -27 2 0 -10 -39 -2 -41 8 -5 29 -2 81 4 81
5 0 6 4 2 9 -3 5 -1 12 4 16 10 6 7 37 -5 57 -4 6 -3 8 4 4 7 -4 10 1 9 14 -1
11 -6 20 -12 20 -5 0 -3 5 5 10 13 9 13 11 0 20 -12 8 -12 10 -1 10 10 0 11 3
2 14 -8 10 -9 16 -1 21 5 3 10 13 10 21 0 9 -5 12 -11 8 -6 -3 -4 5 6 19 11
17 13 27 5 32 -6 3 -7 11 -4 17 4 6 0 14 -7 19 -10 6 -11 9 -1 9 6 0 12 9 12
21 0 13 -4 18 -12 13 -7 -4 -5 2 5 13 12 14 15 23 8 28 -6 3 -9 17 -7 30 3 13
-1 26 -7 29 -9 3 -9 5 1 5 6 1 12 6 12 12 0 5 -5 7 -11 4 -6 -4 -5 2 2 13 11
17 10 24 -2 38 -9 11 -9 15 -1 10 6 -4 12 -3 12 3 0 5 -5 13 -10 16 -8 5 -8
11 -1 19 7 9 7 17 -2 26 -9 10 -9 11 1 6 14 -8 17 10 3 18 -10 7 -9 25 2 44 5
7 3 12 -5 12 -9 0 -9 3 2 10 13 9 13 11 0 20 -8 5 -10 10 -4 10 6 0 11 7 11
15 0 8 -5 15 -11 15 -6 0 -4 5 4 10 13 9 13 11 0 20 -12 8 -12 10 -1 10 11 0
11 3 0 17 -10 11 -10 14 -1 9 6 -4 12 -2 12 3 0 6 -6 11 -12 11 -10 0 -9 3 1
9 9 6 10 10 2 16 -9 5 -9 10 0 21 6 8 9 25 7 39 -3 14 -1 25 5 25 5 0 3 8 -4
17 -8 9 -9 14 -3 10 7 -4 15 0 18 9 3 8 2 13 -3 10 -5 -3 -11 3 -14 14 -3 11
-1 18 4 14 8 -4 14 17 10 39 0 4 4 7 9 7 7 0 7 7 -1 21 -9 17 -8 23 2 30 8 5
10 9 5 9 -5 0 -4 6 2 13 5 6 8 22 6 35 -2 12 1 22 7 22 8 0 8 5 -1 15 -12 14
-7 20 15 15 6 -1 5 4 -2 11 -8 8 -9 18 -2 30 5 10 9 22 8 26 -4 26 2 43 14 37
9 -6 9 -4 -1 8 -9 12 -10 18 -2 23 6 4 9 12 7 18 -2 7 3 17 12 24 11 8 12 12
4 13 -9 0 -7 6 5 18 9 11 22 17 27 14 6 -3 7 -2 3 3 -4 4 -3 13 2 20 6 8 5 18
-6 31 -8 10 -13 13 -9 6 4 -8 -1 -11 -17 -8 -13 2 -29 -2 -37 -8 -11 -8 -13
-8 -8 1 8 13 -18 12 -30 -2 -4 -4 -2 -5 6 0 10 6 12 4 7 -4 -6 -9 -11 -9 -21
-1 -9 8 -15 8 -20 0 -3 -6 -11 -8 -16 -5 -5 4 -9 2 -9 -4 0 -6 -7 -8 -15 -5
-8 4 -17 -1 -21 -10 -3 -9 -10 -13 -15 -10 -5 3 -9 0 -9 -5 0 -6 -9 -11 -21
-11 -11 0 -17 -4 -14 -10 3 -5 -1 -10 -9 -10 -8 0 -19 -6 -23 -14 -4 -8 -12
-15 -18 -16 -5 -1 -9 -7 -9 -15 1 -8 -6 -12 -17 -10 -11 2 -19 -1 -19 -8 0 -8
-3 -8 -12 1 -8 8 -8 15 3 28 12 16 12 17 -1 9 -13 -7 -13 -6 -2 7 10 12 10 17
1 20 -8 3 -9 9 -4 18 14 22 15 60 2 60 -7 0 -6 4 3 10 8 5 10 10 3 10 -13 0
-12 18 1 39 6 10 5 12 -2 7 -9 -5 -12 6 -12 36 0 24 -6 50 -12 57 -11 11 -10
12 1 6 9 -5 12 -3 9 6 -3 8 -11 13 -17 11 -7 -1 -10 2 -6 8 4 6 1 18 -7 27 -9
12 -9 15 0 9 6 -4 12 -2 12 3 0 6 -6 11 -12 11 -9 0 -8 4 2 10 13 8 13 10 -2
10 -10 0 -15 5 -12 13 6 17 -21 69 -31 59 -5 -4 -5 -2 -2 5 9 15 -2 45 -14 37
-5 -3 -9 4 -9 14 0 11 -10 27 -22 36 -13 9 -16 14 -8 10 13 -7 13 -6 0 12 -8
10 -26 29 -40 42 -14 13 -19 21 -12 17 6 -3 12 -4 12 0 0 3 -11 10 -25 15 -14
5 -25 16 -25 24 0 7 -8 20 -17 27 -17 13 -17 12 -3 -6 8 -11 -9 4 -37 32 -32
33 -53 48 -56 40 -3 -7 -6 -4 -6 6 -1 10 -5 16 -10 13 -5 -3 -12 1 -15 10 -3
8 -10 13 -15 10 -5 -4 -16 1 -24 9 -9 8 -20 15 -26 15 -6 0 -11 7 -11 15 0 8
-6 12 -13 9 -7 -2 -26 9 -42 26 -16 16 -33 30 -38 30 -6 0 -16 8 -24 18 -10
11 -12 12 -8 2 4 -8 -1 -6 -9 4 -9 11 -16 16 -16 12 0 -5 -7 -3 -15 4 -21 18
-30 6 -10 -14 11 -10 12 -16 4 -16 -7 0 -3 -8 8 -17 11 -10 19 -28 18 -41 -1
-13 3 -26 8 -29 6 -4 7 -1 2 7 -5 9 -4 11 3 6 9 -5 9 -13 2 -27 -8 -15 -7 -21
4 -25 12 -5 13 -10 5 -26 -7 -13 -7 -18 -1 -14 6 3 13 2 17 -4 3 -5 0 -10 -7
-10 -9 0 -9 -3 -2 -8 13 -8 25 -64 12 -56 -5 3 -6 -6 -2 -22 6 -21 4 -25 -7
-19 -8 5 -11 5 -7 0 4 -4 3 -14 -4 -22 -6 -7 -8 -16 -4 -20 3 -3 6 -1 6 6 0 7
5 9 11 6 6 -5 3 -13 -10 -22 -12 -8 -19 -19 -16 -24 4 -5 1 -9 -5 -9 -6 0 -8
-5 -5 -10 3 -6 -1 -13 -9 -16 -9 -3 -14 -10 -11 -14 3 -5 -3 -13 -12 -19 -10
-6 -14 -11 -10 -11 5 0 -8 -16 -27 -35 -20 -19 -33 -35 -29 -35 5 -1 -3 -7
-17 -14 -14 -8 -28 -12 -32 -10 -5 3 -8 -2 -8 -10 0 -9 -3 -15 -7 -15 -20 3
-34 -2 -28 -11 6 -9 -8 -14 -27 -11 -5 0 -8 -4 -8 -10 0 -6 -7 -8 -16 -5 -8 3
-12 2 -9 -3 3 -5 -5 -13 -17 -17 -12 -3 -28 -13 -36 -20 -7 -8 -22 -14 -33
-14 -10 0 -19 -5 -19 -11 0 -6 -6 -9 -12 -6 -7 2 -19 -3 -26 -12 -10 -12 -12
-13 -6 -1 7 13 5 13 -9 2 -9 -8 -21 -11 -27 -7 -6 4 -10 3 -9 -2 3 -20 -2 -27
-11 -13 -8 13 -10 12 -10 -2 0 -10 -5 -18 -11 -18 -5 0 -7 6 -3 13 4 6 -2 4
-13 -6 -11 -9 -23 -14 -26 -10 -4 3 -7 1 -7 -5 0 -7 -3 -11 -7 -10 -16 4 -53
-14 -48 -23 4 -5 2 -9 -4 -9 -5 0 -11 5 -13 11 -2 5 -11 7 -21 4 -9 -4 -14
-11 -11 -16 4 -8 -17 -14 -38 -10 -5 0 -8 -3 -8 -9 0 -5 -7 -7 -15 -4 -8 4
-15 1 -15 -5 0 -6 -9 -11 -20 -11 -11 0 -20 -4 -20 -10 0 -5 -9 -10 -19 -10
-11 0 -22 -8 -24 -17 -4 -17 -5 -17 -6 0 0 10 -6 15 -11 12 -6 -4 -8 -10 -6
-14 3 -4 -1 -8 -9 -9 -8 -1 -21 -3 -29 -4 -8 -1 -12 -8 -8 -16 3 -9 1 -13 -4
-10 -13 8 -56 -10 -49 -21 3 -6 -7 -9 -22 -7 -16 1 -27 8 -26 14 2 7 -2 12 -8
12 -5 0 -8 4 -4 9 3 6 -7 22 -22 37 -16 14 -21 23 -13 20 8 -4 4 2 -9 13 -14
13 -18 21 -10 21 8 1 3 7 -11 15 -14 8 -21 14 -17 15 5 0 1 7 -7 16 -9 8 -14
20 -11 25 4 5 -2 9 -12 9 -14 0 -15 2 -4 9 11 7 9 10 -8 16 -11 3 -21 13 -21
21 0 8 -5 14 -11 14 -5 0 -7 5 -4 10 3 6 -1 10 -9 10 -8 0 -18 5 -22 12 -5 7
-3 8 7 3 15 -9 -15 29 -44 57 -10 9 -18 20 -19 25 0 4 -5 7 -11 5 -6 -2 -4 5
4 14 8 10 9 15 3 11 -12 -7 -29 19 -25 40 1 6 -8 18 -19 26 -16 11 -18 16 -8
20 8 3 6 6 -6 6 -11 1 -16 6 -13 15 3 8 0 17 -7 19 -7 3 -16 20 -20 37 -4 25
-10 31 -22 26 -14 -5 -15 -4 -4 9 10 12 10 15 0 15 -7 0 -10 7 -7 15 4 8 1 17
-5 21 -7 5 -8 2 -3 -6 5 -9 4 -11 -4 -6 -6 4 -9 12 -5 17 3 5 0 17 -8 26 -11
14 -11 16 2 9 8 -4 6 0 -4 8 -12 9 -14 16 -7 16 8 0 5 9 -8 26 -16 21 -18 30
-10 40 9 11 8 14 -1 14 -7 0 -10 7 -7 15 4 8 2 17 -3 20 -5 3 -7 12 -4 19 3 8
0 17 -5 21 -6 3 -8 12 -4 18 12 19 13 46 3 52 -6 4 -7 12 -3 18 11 18 12 38 2
31 -13 -8 -11 10 4 25 10 11 10 13 0 7 -13 -7 -17 4 -13 38 1 10 -2 16 -8 13
-5 -4 -9 0 -9 8 0 8 3 12 7 10 4 -2 7 2 7 10 0 8 -5 13 -11 12 -6 -1 -11 6
-11 15 0 32 -11 27 -13 -7z m1549 -252 c13 -16 12 -17 -3 -4 -10 7 -18 15 -18
17 0 8 8 3 21 -13z m1084 -2371 c-3 -3 -11 0 -18 7 -9 10 -8 11 6 5 10 -3 15
-9 12 -12z"/>
<path d="M4045 740 c-3 -6 1 -7 9 -4 18 7 21 14 7 14 -6 0 -13 -4 -16 -10z"/>
<path d="M4071 734 c-7 -8 -10 -18 -7 -21 3 -4 6 -3 6 2 0 4 6 2 14 -4 10 -9
16 -9 21 -1 4 6 4 14 1 17 -3 4 -6 1 -6 -6 0 -7 -4 -10 -10 -6 -5 3 -7 12 -3
20 7 19 2 18 -16 -1z"/>
</g>
</svg>
