<svg width="73" height="57" viewBox="0 0 73 57" fill="none" xmlns="http://www.w3.org/2000/svg">
<g clip-path="url(#clip0_8_22)">
<path d="M61.8379 4.75391C57.0505 2.50391 51.9858 0.905182 46.7776 0C46.1289 1.1781 45.371 2.76264 44.8483 4.02323C39.233 3.1751 33.6693 3.1751 28.1572 4.02323C27.6348 2.76292 26.8598 1.1781 26.205 0C20.9918 0.905599 15.9228 2.5084 11.1331 4.76566C1.60205 19.2331 -0.981752 33.3407 0.310006 47.2487C6.63164 51.9906 12.7579 54.8712 18.781 56.7562C20.2779 54.6885 21.6011 52.4994 22.737 50.2116C20.5744 49.3846 18.4897 48.3654 16.5075 47.1662C17.0291 46.7778 17.5384 46.3731 18.0348 45.9526C30.0461 51.5959 43.0971 51.5959 54.9653 45.9526C55.4638 46.3703 55.973 46.775 56.4924 47.1662C54.507 48.3686 52.4183 49.3898 50.2514 50.2176C51.3938 52.5148 52.7146 54.706 54.2074 56.762C60.2362 54.8773 66.3682 51.9966 72.6898 47.2487C74.2057 31.126 70.1006 17.1475 61.8379 4.75363V4.75391ZM24.3735 38.6956C20.7677 38.6956 17.8106 35.3142 17.8106 31.1968C17.8106 27.0793 20.7047 23.6922 24.3735 23.6922C28.0426 23.6922 30.9994 27.0733 30.9364 31.1968C30.9421 35.3142 28.0426 38.6956 24.3735 38.6956ZM48.6263 38.6956C45.0205 38.6956 42.0637 35.3142 42.0637 31.1968C42.0637 27.0793 44.9575 23.6922 48.6263 23.6922C52.2954 23.6922 55.2522 27.0733 55.1892 31.1968C55.1892 35.3142 52.2954 38.6956 48.6263 38.6956V38.6956Z" fill="#5865F2"/>
</g>
<defs>
<clipPath id="clip0_8_22">
<rect width="73" height="57" fill="white"/>
</clipPath>
</defs>
</svg>
