<svg width="120" height="120" viewBox="0 0 120 120" fill="none" xmlns="http://www.w3.org/2000/svg">
<path d="M53 112L8 67C4 63 4 56.75 8 52.75L53 7.75C57 3.75 63.25 3.75 67.25 7.75L112.25 52.75C116.25 56.75 116.25 63 112.25 67L67.25 112C63.25 116 56.75 116 53 112Z" fill="#E33D49"/>
<path d="M55 81.75C55 81 55.25 80.25 55.5 79.5C55.75 78.75 56.25 78.25 56.75 77.75C57.25 77.25 58 76.75 58.75 76.5C59.5 76.25 60.25 76 61.25 76C62.25 76 63 76.25 63.75 76.5C64.5 76.75 65.25 77.25 65.75 77.75C66.25 78.25 66.75 78.75 67 79.5C67.25 80.25 67.5 81 67.5 81.75C67.5 82.5 67.25 83.25 67 84C66.75 84.75 66.25 85.25 65.75 85.75C65.25 86.25 64.5 86.75 63.75 87C63 87.25 62.25 87.5 61.25 87.5C60.25 87.5 59.5 87.25 58.75 87C58 86.75 57.5 86.25 56.75 85.75C56.25 85.25 55.75 84.75 55.5 84C55.25 83.25 55 82.75 55 81.75ZM65.5 70.25H56.5L55.25 32.5H66.75L65.5 70.25V70.25Z" fill="white"/>
</svg>
