<svg width="111" height="111" viewBox="0 0 111 111" fill="none" xmlns="http://www.w3.org/2000/svg">
<path d="M18.375 91.875V59.7187H50.5312L35.7532 74.5106C38.2773 77.0917 41.2903 79.1442 44.6164 80.5481C47.9424 81.952 51.5148 82.6793 55.125 82.6875C60.8178 82.6791 66.3684 80.9081 71.0141 77.6179C75.6599 74.3277 79.1729 69.6797 81.0705 64.3125H81.1532C81.6769 62.8195 82.0765 61.2806 82.343 59.7187H91.5856C90.4667 68.5994 86.1452 76.7665 79.4321 82.6871C72.719 88.6077 64.0759 91.8747 55.125 91.875H55.0791C50.2548 91.8894 45.4755 90.9468 41.018 89.1016C36.5605 87.2565 32.5133 84.5455 29.1106 81.1256L18.375 91.875ZM27.9024 50.5312H18.6598C19.7783 41.6537 24.0972 33.4891 30.8064 27.5689C37.5156 21.6488 46.1543 18.3797 55.102 18.375H55.125C59.9501 18.3597 64.7303 19.3019 69.1886 21.1471C73.647 22.9923 77.695 25.7037 81.0981 29.1244L91.875 18.375V50.5312H59.7188L74.5198 35.7394C71.9931 33.1553 68.9764 31.1011 65.6462 29.6971C62.3159 28.293 58.7391 27.5674 55.125 27.5625C49.4322 27.5709 43.8816 29.3418 39.2359 32.632C34.5901 35.9222 31.0771 40.5702 29.1795 45.9375H29.0968C28.5685 47.4305 28.1689 48.9694 27.907 50.5312H27.9024Z" fill="#696E79"/>
</svg>
