<svg width="52" height="52" viewBox="0 0 52 52" fill="none" xmlns="http://www.w3.org/2000/svg">
<path d="M13 41.1667C13 43.55 14.95 45.5 17.3333 45.5H34.6667C37.05 45.5 39 43.55 39 41.1667V19.5C39 17.1167 37.05 15.1667 34.6667 15.1667H17.3333C14.95 15.1667 13 17.1167 13 19.5V41.1667ZM39 8.66667H33.5833L32.045 7.12833C31.655 6.73833 31.0917 6.5 30.5283 6.5H21.4717C20.9083 6.5 20.345 6.73833 19.955 7.12833L18.4167 8.66667H13C11.8083 8.66667 10.8333 9.64167 10.8333 10.8333C10.8333 12.025 11.8083 13 13 13H39C40.1917 13 41.1667 12.025 41.1667 10.8333C41.1667 9.64167 40.1917 8.66667 39 8.66667Z" fill="#E33D49"/>
</svg>
