<?xml version="1.0" encoding="utf-8"?>
<!-- Generator: Adobe Illustrator 23.1.0, SVG Export Plug-In . SVG Version: 6.00 Build 0)  -->
<svg version="1.1" id="Layer_1" xmlns="http://www.w3.org/2000/svg" xmlns:xlink="http://www.w3.org/1999/xlink" x="0px" y="0px"
	 viewBox="0 0 1024 1024" style="enable-background:new 0 0 1024 1024;" xml:space="preserve" fill="#fff">
<g id="Black-Logo-Mark">
	<path d="M374.3,398.7c0-16.6,0-49,0-97.3c-57.6,37.7-94.4,92-110.3,162.7h175.6l-0.2,358.1c-67-18.8-119.8-49.7-158.3-92.9
		s-63.8-88.4-76-135.5c18.2,0,40.9,0,68.1,0c23,59.5,56.8,103,101.3,130.3V528.7H194.9c-2.4-82.5,20-153,67.4-211.7
		s106.5-96.4,177.3-113.3l-0.2,195H374.3z M584.5,925.8v-64.1C746.9,828.2,869,684.4,869,512.1c0-186.2-142.5-339-324.5-355.5V932
		h-65.1V156.6C297.5,173,155,325.9,155,512.1c0,172.3,122.1,316.1,284.5,349.6v64.1C242.1,891.5,92,719.3,92,512.1
		c0-221,170.7-402.1,387.5-418.7c14.8-0.9,25.6-1.4,32.5-1.4c7.5,0,18.4,0.5,32.5,1.4C761.3,110,932,291.1,932,512.1
		C932,719.3,781.9,891.5,584.5,925.8z M584.3,823.6V205.7c122.8,33.5,201.5,111.6,236.3,234.5c14.7,60,18.9,158.8-48.4,256.5
		c0-92.6,0-160.4,0-203.5c-10.1-42.4-22.7-76.1-37.8-101c0,33.6,0,149.9,0,348.7c-18.7,18.2-37.4,33-56.2,44.3
		c0-11.8,0-165.1,0-460.1c-11.7-10.6-24.3-20.2-37.8-28.8c0,20.5,0,329.3,0,508.9C617,814.6,598.3,820.7,584.3,823.6z"/>
</g>
</svg>
