<svg width="65" height="53" viewBox="0 0 65 53" fill="none" xmlns="http://www.w3.org/2000/svg">
<g clip-path="url(#clip0_8_18)">
<path d="M65 6.45381C62.6082 7.51305 60.0382 8.22893 57.3407 8.55099C60.0943 6.90266 62.2086 4.29248 63.2041 1.18247C60.5865 2.73389 57.7226 3.82696 54.7361 4.41445C52.3034 1.82608 48.8379 0.208435 45.0021 0.208435C37.6373 0.208435 31.6662 6.17182 31.6662 13.5269C31.6662 14.5709 31.7842 15.5873 32.0115 16.5624C20.9285 16.0067 11.1023 10.7045 4.52486 2.64643C3.37721 4.61352 2.71959 6.90165 2.71959 9.34219C2.71959 13.9631 5.07406 18.0395 8.65211 20.4281C6.5344 20.3618 4.46329 19.7906 2.61168 18.762C2.61092 18.8178 2.61092 18.8736 2.61092 18.9296C2.61092 25.3827 7.20764 30.7659 13.308 31.9894C11.3442 32.5228 9.28441 32.6009 7.28584 32.2176C8.9827 37.509 13.9077 41.3595 19.743 41.4673C15.179 45.0393 9.42881 47.1687 3.18119 47.1687C2.10463 47.1687 1.0433 47.1056 0 46.9826C5.90154 50.7616 12.9111 52.9665 20.442 52.9665C44.9711 52.9665 58.3842 32.6716 58.3842 15.0715C58.3842 14.4938 58.3715 13.9195 58.3456 13.3484C60.9564 11.4634 63.2097 9.1287 65 6.45381" fill="#55ACEE"/>
</g>
<defs>
<clipPath id="clip0_8_18">
<rect width="65" height="53" fill="white"/>
</clipPath>
</defs>
</svg>
